<?xml version="1.0" standalone="no"?>
<!DOCTYPE svg PUBLIC "-//W3C//DTD SVG 20010904//EN"
 "http://www.w3.org/TR/2001/REC-SVG-20010904/DTD/svg10.dtd">
<svg version="1.0" xmlns="http://www.w3.org/2000/svg"
 width="85.000000pt" height="85.000000pt" viewBox="0 0 85.000000 85.000000"
 preserveAspectRatio="xMidYMid meet">
<metadata>
Created by potrace 1.11, written by Peter Selinger 2001-2013
</metadata>
<g transform="translate(0.000000,85.000000) scale(0.100000,-0.100000)"
fill="#000000" stroke="none">
<path d="M170 800 c0 -35 -4 -50 -12 -49 -34 4 -48 -2 -48 -21 0 -13 -7 -20
-20 -20 -20 0 -20 -7 -20 -355 l0 -355 350 0 350 0 0 355 c0 348 0 355 -20
355 -13 0 -20 7 -20 20 0 16 -7 20 -31 20 -24 0 -29 3 -22 13 5 6 9 28 9 47
l-1 35 -257 3 -258 2 0 -50z m486 -648 l2 -42 -63 1 -63 2 0 36 c0 20 4 39 9
42 5 3 33 5 62 5 l52 -1 1 -43z"/>
</g>
</svg>
